<mxfile host="app.diagrams.net" agent="Mozilla/5.0 (Windows NT 10.0; Win64; x64) AppleWebKit/537.36 (KHTML, like Gecko) Chrome/130.0.0.0 Safari/537.36 Edg/130.0.0.0" version="24.7.17">
  <diagram id="prtHgNgQTEPvFCAcTncT" name="Page-1">
    <mxGraphModel dx="1307" dy="1875" grid="1" gridSize="10" guides="1" tooltips="1" connect="1" arrows="1" fold="1" page="1" pageScale="1" pageWidth="827" pageHeight="1169" math="0" shadow="0">
      <root>
        <mxCell id="0" />
        <mxCell id="1" parent="0" />
        <mxCell id="DOwTM6RmxvTf31mkBMxO-10" value="" style="edgeStyle=orthogonalEdgeStyle;rounded=0;orthogonalLoop=1;jettySize=auto;html=1;" parent="1" source="8SG6r78gIQsy0ms2QrxP-1" target="DOwTM6RmxvTf31mkBMxO-7" edge="1">
          <mxGeometry relative="1" as="geometry" />
        </mxCell>
        <mxCell id="8SG6r78gIQsy0ms2QrxP-1" value="Максимальное&lt;div&gt;время обслуживания заявки&lt;/div&gt;" style="strokeWidth=2;html=1;shape=mxgraph.flowchart.terminator;whiteSpace=wrap;" parent="1" vertex="1">
          <mxGeometry x="393" y="-287" width="146" height="60" as="geometry" />
        </mxCell>
        <mxCell id="ltg_N6pYSxbRlfZfUS3R-8" value="" style="edgeStyle=orthogonalEdgeStyle;rounded=0;orthogonalLoop=1;jettySize=auto;html=1;" parent="1" source="ltg_N6pYSxbRlfZfUS3R-1" target="ltg_N6pYSxbRlfZfUS3R-3" edge="1">
          <mxGeometry relative="1" as="geometry" />
        </mxCell>
        <mxCell id="ltg_N6pYSxbRlfZfUS3R-1" value="&lt;div&gt;&lt;br&gt;&lt;/div&gt;tc = оценка времени мастером" style="html=1;strokeWidth=2;shape=manualInput;whiteSpace=wrap;rounded=1;size=26;arcSize=11;" parent="1" vertex="1">
          <mxGeometry x="405.25" y="356" width="119.5" height="60" as="geometry" />
        </mxCell>
        <mxCell id="ltg_N6pYSxbRlfZfUS3R-9" value="" style="edgeStyle=orthogonalEdgeStyle;rounded=0;orthogonalLoop=1;jettySize=auto;html=1;" parent="1" source="ltg_N6pYSxbRlfZfUS3R-2" target="ltg_N6pYSxbRlfZfUS3R-1" edge="1">
          <mxGeometry relative="1" as="geometry" />
        </mxCell>
        <mxCell id="ltg_N6pYSxbRlfZfUS3R-2" value="&lt;div&gt;&lt;br&gt;&lt;/div&gt;tr = время на обработку заявки" style="html=1;strokeWidth=2;shape=manualInput;whiteSpace=wrap;rounded=1;size=26;arcSize=11;" parent="1" vertex="1">
          <mxGeometry x="405.25" y="266" width="119.5" height="60" as="geometry" />
        </mxCell>
        <mxCell id="ltg_N6pYSxbRlfZfUS3R-7" value="" style="edgeStyle=orthogonalEdgeStyle;rounded=0;orthogonalLoop=1;jettySize=auto;html=1;" parent="1" source="ltg_N6pYSxbRlfZfUS3R-3" target="ltg_N6pYSxbRlfZfUS3R-6" edge="1">
          <mxGeometry relative="1" as="geometry" />
        </mxCell>
        <mxCell id="ltg_N6pYSxbRlfZfUS3R-12" value="" style="edgeStyle=orthogonalEdgeStyle;rounded=0;orthogonalLoop=1;jettySize=auto;html=1;" parent="1" source="ltg_N6pYSxbRlfZfUS3R-3" target="ltg_N6pYSxbRlfZfUS3R-11" edge="1">
          <mxGeometry relative="1" as="geometry" />
        </mxCell>
        <mxCell id="ltg_N6pYSxbRlfZfUS3R-3" value="Все необходимое есть&lt;br&gt;на складе&amp;nbsp;" style="strokeWidth=2;html=1;shape=mxgraph.flowchart.decision;whiteSpace=wrap;" parent="1" vertex="1">
          <mxGeometry x="380.25" y="446" width="169.5" height="80" as="geometry" />
        </mxCell>
        <mxCell id="ltg_N6pYSxbRlfZfUS3R-5" value="" style="verticalLabelPosition=bottom;verticalAlign=top;html=1;shape=process;whiteSpace=wrap;rounded=1;size=0.14;arcSize=6;" parent="1" vertex="1">
          <mxGeometry x="392" y="576" width="146" height="60" as="geometry" />
        </mxCell>
        <mxCell id="DOwTM6RmxvTf31mkBMxO-30" value="" style="edgeStyle=orthogonalEdgeStyle;rounded=0;orthogonalLoop=1;jettySize=auto;html=1;" parent="1" source="ltg_N6pYSxbRlfZfUS3R-6" target="DOwTM6RmxvTf31mkBMxO-4" edge="1">
          <mxGeometry relative="1" as="geometry" />
        </mxCell>
        <mxCell id="ltg_N6pYSxbRlfZfUS3R-6" value="Сумма всех &lt;br&gt;переменных:&lt;br&gt;s = tr + tc + tl" style="text;html=1;align=center;verticalAlign=middle;resizable=0;points=[];autosize=1;strokeColor=none;fillColor=none;" parent="1" vertex="1">
          <mxGeometry x="415" y="576" width="100" height="60" as="geometry" />
        </mxCell>
        <mxCell id="ltg_N6pYSxbRlfZfUS3R-14" style="edgeStyle=orthogonalEdgeStyle;rounded=0;orthogonalLoop=1;jettySize=auto;html=1;entryX=0;entryY=0.5;entryDx=0;entryDy=0;" parent="1" source="ltg_N6pYSxbRlfZfUS3R-11" target="ltg_N6pYSxbRlfZfUS3R-5" edge="1">
          <mxGeometry relative="1" as="geometry">
            <Array as="points">
              <mxPoint x="222" y="606" />
            </Array>
          </mxGeometry>
        </mxCell>
        <mxCell id="ltg_N6pYSxbRlfZfUS3R-11" value="&lt;div&gt;&lt;br&gt;&lt;/div&gt;tl = время необходимое для доставки необходимого" style="html=1;strokeWidth=2;shape=manualInput;whiteSpace=wrap;rounded=1;size=26;arcSize=11;" parent="1" vertex="1">
          <mxGeometry x="142" y="456" width="180" height="60" as="geometry" />
        </mxCell>
        <mxCell id="ltg_N6pYSxbRlfZfUS3R-15" value="нет" style="text;html=1;align=center;verticalAlign=middle;resizable=0;points=[];autosize=1;strokeColor=none;fillColor=none;" parent="1" vertex="1">
          <mxGeometry x="340.25" y="456" width="40" height="30" as="geometry" />
        </mxCell>
        <mxCell id="ltg_N6pYSxbRlfZfUS3R-16" value="Да" style="text;html=1;align=center;verticalAlign=middle;resizable=0;points=[];autosize=1;strokeColor=none;fillColor=none;" parent="1" vertex="1">
          <mxGeometry x="472" y="536" width="40" height="30" as="geometry" />
        </mxCell>
        <mxCell id="ltg_N6pYSxbRlfZfUS3R-17" value="Конец" style="strokeWidth=2;html=1;shape=mxgraph.flowchart.terminator;whiteSpace=wrap;" parent="1" vertex="1">
          <mxGeometry x="392" y="1021" width="146" height="60" as="geometry" />
        </mxCell>
        <mxCell id="ltg_N6pYSxbRlfZfUS3R-20" value="" style="edgeStyle=orthogonalEdgeStyle;rounded=0;orthogonalLoop=1;jettySize=auto;html=1;" parent="1" source="ltg_N6pYSxbRlfZfUS3R-18" target="ltg_N6pYSxbRlfZfUS3R-17" edge="1">
          <mxGeometry relative="1" as="geometry" />
        </mxCell>
        <mxCell id="ltg_N6pYSxbRlfZfUS3R-18" value="Вывод S" style="strokeWidth=2;html=1;shape=mxgraph.flowchart.display;whiteSpace=wrap;" parent="1" vertex="1">
          <mxGeometry x="415" y="911" width="100" height="60" as="geometry" />
        </mxCell>
        <mxCell id="DOwTM6RmxvTf31mkBMxO-24" value="" style="edgeStyle=orthogonalEdgeStyle;rounded=0;orthogonalLoop=1;jettySize=auto;html=1;" parent="1" source="DOwTM6RmxvTf31mkBMxO-1" target="DOwTM6RmxvTf31mkBMxO-12" edge="1">
          <mxGeometry relative="1" as="geometry" />
        </mxCell>
        <mxCell id="DOwTM6RmxvTf31mkBMxO-1" value="Поиск макс. времени&lt;div&gt;пока i &amp;lt; store.Length&lt;/div&gt;" style="strokeWidth=2;html=1;shape=mxgraph.flowchart.loop_limit;whiteSpace=wrap;" parent="1" vertex="1">
          <mxGeometry x="415" y="-86" width="100" height="60" as="geometry" />
        </mxCell>
        <mxCell id="DOwTM6RmxvTf31mkBMxO-2" value="" style="strokeWidth=2;html=1;shape=mxgraph.flowchart.loop_limit;whiteSpace=wrap;rotation=-180;" parent="1" vertex="1">
          <mxGeometry x="414.75" y="804" width="100" height="60" as="geometry" />
        </mxCell>
        <mxCell id="DOwTM6RmxvTf31mkBMxO-3" value="&lt;span style=&quot;text-wrap: wrap;&quot;&gt;Поиск макс.&lt;br&gt;времени&lt;/span&gt;" style="text;html=1;align=center;verticalAlign=middle;resizable=0;points=[];autosize=1;strokeColor=none;fillColor=none;" parent="1" vertex="1">
          <mxGeometry x="422" y="814" width="90" height="40" as="geometry" />
        </mxCell>
        <mxCell id="DOwTM6RmxvTf31mkBMxO-32" style="edgeStyle=orthogonalEdgeStyle;rounded=0;orthogonalLoop=1;jettySize=auto;html=1;" parent="1" source="DOwTM6RmxvTf31mkBMxO-4" target="DOwTM6RmxvTf31mkBMxO-2" edge="1">
          <mxGeometry relative="1" as="geometry" />
        </mxCell>
        <mxCell id="DOwTM6RmxvTf31mkBMxO-4" value="" style="verticalLabelPosition=bottom;verticalAlign=top;html=1;shape=process;whiteSpace=wrap;rounded=1;size=0.14;arcSize=6;" parent="1" vertex="1">
          <mxGeometry x="390" y="690" width="150" height="60" as="geometry" />
        </mxCell>
        <mxCell id="DOwTM6RmxvTf31mkBMxO-5" value="переход к&amp;nbsp;&lt;div&gt;следующему &lt;br&gt;элементу i++&lt;/div&gt;" style="text;html=1;align=center;verticalAlign=middle;resizable=0;points=[];autosize=1;strokeColor=none;fillColor=none;" parent="1" vertex="1">
          <mxGeometry x="416" y="690" width="100" height="60" as="geometry" />
        </mxCell>
        <mxCell id="DOwTM6RmxvTf31mkBMxO-6" value="" style="verticalLabelPosition=bottom;verticalAlign=top;html=1;shape=process;whiteSpace=wrap;rounded=1;size=0.14;arcSize=6;" parent="1" vertex="1">
          <mxGeometry x="380" y="-181" width="170" height="60" as="geometry" />
        </mxCell>
        <mxCell id="DOwTM6RmxvTf31mkBMxO-11" value="" style="edgeStyle=orthogonalEdgeStyle;rounded=0;orthogonalLoop=1;jettySize=auto;html=1;" parent="1" source="DOwTM6RmxvTf31mkBMxO-7" target="DOwTM6RmxvTf31mkBMxO-1" edge="1">
          <mxGeometry relative="1" as="geometry" />
        </mxCell>
        <mxCell id="DOwTM6RmxvTf31mkBMxO-7" value="Записываем данные&amp;nbsp;&lt;div&gt;из&amp;nbsp;&lt;span style=&quot;background-color: initial;&quot;&gt;хранилища в&amp;nbsp;&lt;/span&gt;&lt;div&gt;переменную store&amp;nbsp;&lt;/div&gt;&lt;/div&gt;" style="text;html=1;align=center;verticalAlign=middle;resizable=0;points=[];autosize=1;strokeColor=none;fillColor=none;" parent="1" vertex="1">
          <mxGeometry x="396" y="-180" width="140" height="60" as="geometry" />
        </mxCell>
        <mxCell id="DOwTM6RmxvTf31mkBMxO-9" style="edgeStyle=orthogonalEdgeStyle;rounded=0;orthogonalLoop=1;jettySize=auto;html=1;" parent="1" source="DOwTM6RmxvTf31mkBMxO-8" edge="1">
          <mxGeometry relative="1" as="geometry">
            <mxPoint x="550" y="-151" as="targetPoint" />
          </mxGeometry>
        </mxCell>
        <mxCell id="DOwTM6RmxvTf31mkBMxO-8" value="&lt;div&gt;&lt;br&gt;&lt;/div&gt;БД&lt;br&gt;Repair&lt;div&gt;WorkShop&lt;/div&gt;" style="strokeWidth=2;html=1;shape=mxgraph.flowchart.database;whiteSpace=wrap;" parent="1" vertex="1">
          <mxGeometry x="670" y="-196" width="80" height="90" as="geometry" />
        </mxCell>
        <mxCell id="DOwTM6RmxvTf31mkBMxO-15" value="" style="edgeStyle=orthogonalEdgeStyle;rounded=0;orthogonalLoop=1;jettySize=auto;html=1;" parent="1" source="DOwTM6RmxvTf31mkBMxO-12" target="DOwTM6RmxvTf31mkBMxO-14" edge="1">
          <mxGeometry relative="1" as="geometry" />
        </mxCell>
        <mxCell id="DOwTM6RmxvTf31mkBMxO-12" value="" style="verticalLabelPosition=bottom;verticalAlign=top;html=1;shape=process;whiteSpace=wrap;rounded=1;size=0.14;arcSize=6;" parent="1" vertex="1">
          <mxGeometry x="380" y="40" width="170" height="60" as="geometry" />
        </mxCell>
        <mxCell id="DOwTM6RmxvTf31mkBMxO-13" value="Записываем данные&amp;nbsp;&lt;div&gt;записи: data = store[i]&lt;/div&gt;" style="text;html=1;align=center;verticalAlign=middle;resizable=0;points=[];autosize=1;strokeColor=none;fillColor=none;" parent="1" vertex="1">
          <mxGeometry x="395" y="50" width="140" height="40" as="geometry" />
        </mxCell>
        <mxCell id="DOwTM6RmxvTf31mkBMxO-19" value="" style="edgeStyle=orthogonalEdgeStyle;rounded=0;orthogonalLoop=1;jettySize=auto;html=1;" parent="1" source="DOwTM6RmxvTf31mkBMxO-14" target="ltg_N6pYSxbRlfZfUS3R-2" edge="1">
          <mxGeometry relative="1" as="geometry" />
        </mxCell>
        <mxCell id="DOwTM6RmxvTf31mkBMxO-27" style="edgeStyle=orthogonalEdgeStyle;rounded=0;orthogonalLoop=1;jettySize=auto;html=1;entryX=1;entryY=0.5;entryDx=0;entryDy=0;" parent="1" source="DOwTM6RmxvTf31mkBMxO-14" target="DOwTM6RmxvTf31mkBMxO-4" edge="1">
          <mxGeometry relative="1" as="geometry">
            <Array as="points">
              <mxPoint x="620" y="190" />
              <mxPoint x="620" y="720" />
            </Array>
          </mxGeometry>
        </mxCell>
        <mxCell id="DOwTM6RmxvTf31mkBMxO-14" value="&lt;div&gt;&lt;br&gt;&lt;/div&gt;data.Status.Request = 3&lt;br&gt;(Выполнено)" style="strokeWidth=2;html=1;shape=mxgraph.flowchart.decision;whiteSpace=wrap;" parent="1" vertex="1">
          <mxGeometry x="380" y="150" width="169.5" height="80" as="geometry" />
        </mxCell>
        <mxCell id="DOwTM6RmxvTf31mkBMxO-18" value="Нет" style="text;html=1;align=center;verticalAlign=middle;resizable=0;points=[];autosize=1;strokeColor=none;fillColor=none;" parent="1" vertex="1">
          <mxGeometry x="557.75" y="158" width="40" height="30" as="geometry" />
        </mxCell>
        <mxCell id="DOwTM6RmxvTf31mkBMxO-28" value="Да" style="text;html=1;align=center;verticalAlign=middle;resizable=0;points=[];autosize=1;strokeColor=none;fillColor=none;" parent="1" vertex="1">
          <mxGeometry x="470" y="228" width="40" height="30" as="geometry" />
        </mxCell>
        <mxCell id="DOwTM6RmxvTf31mkBMxO-33" style="edgeStyle=orthogonalEdgeStyle;rounded=0;orthogonalLoop=1;jettySize=auto;html=1;entryX=0.5;entryY=0;entryDx=0;entryDy=0;entryPerimeter=0;" parent="1" source="DOwTM6RmxvTf31mkBMxO-2" target="ltg_N6pYSxbRlfZfUS3R-18" edge="1">
          <mxGeometry relative="1" as="geometry" />
        </mxCell>
      </root>
    </mxGraphModel>
  </diagram>
</mxfile>
